<svg xmlns="http://www.w3.org/2000/svg" version="1.1" xmlns:xlink="http://www.w3.org/1999/xlink" xmlns:svgjs="http://svgjs.com/svgjs" width="1980" height="1080" preserveAspectRatio="none" viewBox="0 0 1980 1080"><g mask="url(&quot;#SvgjsMask1037&quot;)" fill="none"><rect width="1980" height="1080" x="0" y="0" fill="#0e2a47"></rect><path d="M1060.47 834.49L1061.04 834.49L1061.04 835.06L1060.47 835.06z" stroke="rgba(0, 163, 104, 1)"></path><path d="M189.64 637.49L218.75 637.49L218.75 736.93L189.64 736.93z" stroke="rgba(0, 163, 104, 1)"></path><path d="M147.43 753.89 a94.54 94.54 0 1 0 189.08 0 a94.54 94.54 0 1 0 -189.08 0z" fill="rgba(0, 163, 104, 1)"></path><path d="M1526.93 833.99a20.07 20.07 0 1 0-20.79 34.33z" fill="rgba(0, 163, 104, 1)"></path><path d="M727.33 617.16a34.86 34.86 0 1 0-13.72-68.36z" fill="rgba(0, 163, 104, 1)"></path><path d="M1529.68 147.4L1545.16 147.4L1545.16 162.88L1529.68 162.88z" fill="rgba(0, 163, 104, 1)"></path><path d="M955.21 302.52 a15.52 15.52 0 1 0 31.04 0 a15.52 15.52 0 1 0 -31.04 0z" stroke="rgba(0, 163, 104, 1)"></path><path d="M1809.55 524.44a2.47 2.47 0 1 0 4.84-0.96z" stroke="rgba(0, 163, 104, 1)"></path><path d="M1915.34 82.21L1975.27 82.21L1975.27 177L1915.34 177z" fill="rgba(0, 163, 104, 1)"></path><path d="M1906.48 98.65L2005.03 98.65L2005.03 197.2L1906.48 197.2z" stroke="rgba(0, 163, 104, 1)"></path><path d="M664.2 1003.02L719.61 1003.02L719.61 1087.58L664.2 1087.58z" fill="rgba(0, 163, 104, 1)"></path><path d="M116.15 27.68L158.01 27.68L158.01 69.54L116.15 69.54z" stroke="rgba(0, 163, 104, 1)"></path><path d="M1560.33 932.51 a44.02 44.02 0 1 0 88.04 0 a44.02 44.02 0 1 0 -88.04 0z" stroke="rgba(0, 163, 104, 1)"></path><path d="M1598.85 875.96L1656.86 875.96L1656.86 933.97L1598.85 933.97z" stroke="rgba(0, 163, 104, 1)"></path><path d="M1341.47 542.76 a49.13 49.13 0 1 0 98.26 0 a49.13 49.13 0 1 0 -98.26 0z" stroke="rgba(0, 163, 104, 1)"></path><path d="M1089.46 316.38L1147.59 316.38L1147.59 357.79L1089.46 357.79z" fill="rgba(0, 163, 104, 1)"></path><path d="M589.7 67.95a40.01 40.01 0 1 0-62.33-50.19z" fill="rgba(0, 163, 104, 1)"></path><path d="M1035.41 892.03a100.89 100.89 0 1 0 111.9-167.9z" stroke="rgba(0, 163, 104, 1)"></path><path d="M211.65 774.84L319.09 774.84L319.09 882.28L211.65 882.28z" stroke="rgba(0, 163, 104, 1)"></path><path d="M1794.6 7.98L1800.1 7.98L1800.1 66.32L1794.6 66.32z" fill="rgba(0, 163, 104, 1)"></path><path d="M1170.16 594.96L1255.77 594.96L1255.77 680.57L1170.16 680.57z" stroke="rgba(0, 163, 104, 1)"></path><path d="M1780.36 33.01L1831.61 33.01L1831.61 76.73L1780.36 76.73z" stroke="rgba(0, 163, 104, 1)"></path><path d="M1469.6 152.19 a84.2 84.2 0 1 0 168.4 0 a84.2 84.2 0 1 0 -168.4 0z" stroke="rgba(0, 163, 104, 1)"></path></g><defs><mask id="SvgjsMask1037"><rect width="1980" height="1080" fill="#ffffff"></rect></mask></defs></svg>